<?xml version="1.0" standalone="no"?>
<!DOCTYPE svg PUBLIC "-//W3C//DTD SVG 20010904//EN"
 "http://www.w3.org/TR/2001/REC-SVG-20010904/DTD/svg10.dtd">
<svg version="1.0" xmlns="http://www.w3.org/2000/svg"
 width="300.000000pt" height="300.000000pt" viewBox="0 0 300.000000 300.000000"
 preserveAspectRatio="xMidYMid meet">
<metadata>
Created by potrace 1.14, written by Peter Selinger 2001-2017
</metadata>
<g transform="translate(0.000000,300.000000) scale(0.100000,-0.100000)"
fill="#000000" stroke="none">
<path d="M1301 2695 c-80 -23 -166 -72 -225 -130 -79 -78 -115 -169 -116 -288
0 -55 31 -171 51 -191 5 -6 9 -43 9 -83 0 -57 4 -75 15 -79 10 -4 50 27 118
93 57 54 134 124 173 155 137 111 377 249 534 308 66 25 96 42 98 54 6 29 -16
36 -115 36 -90 0 -95 1 -141 35 -92 65 -174 97 -265 101 -54 3 -101 -1 -136
-11z m269 -65 c25 -12 74 -42 109 -66 49 -34 73 -44 105 -44 l41 -1 -65 -28
c-36 -15 -110 -54 -165 -86 -199 -115 -317 -202 -452 -333 l-73 -70 0 32 c0
17 -13 63 -30 101 -53 124 -37 266 40 364 48 60 109 104 192 137 54 21 76 24
158 21 76 -3 104 -8 140 -27z"/>
<path d="M1340 2627 c-61 -14 -125 -47 -125 -65 0 -15 135 -179 154 -187 7 -3
54 17 105 44 50 27 112 56 139 66 31 12 47 24 47 35 0 18 -70 73 -122 94 -50
21 -137 27 -198 13z m160 -48 c21 -6 49 -21 63 -33 l25 -21 -104 -51 -103 -51
-52 64 c-30 37 -48 68 -43 73 28 27 151 38 214 19z"/>
<path d="M1080 2454 c-41 -65 -57 -142 -43 -208 16 -77 39 -126 59 -126 15 0
163 148 172 172 4 9 -114 188 -132 200 -19 13 -26 9 -56 -38z m94 -95 l42 -62
-54 -53 c-29 -30 -55 -54 -57 -54 -9 0 -25 69 -25 109 0 46 35 140 47 128 3
-4 25 -34 47 -68z"/>
<path d="M2230 2549 c-63 -12 -246 -74 -343 -115 -502 -214 -1001 -678 -1211
-1125 -53 -112 -54 -124 -15 -138 48 -17 59 -14 71 19 63 183 259 460 481 682
258 257 511 426 812 544 159 62 254 85 356 87 111 2 129 -10 129 -89 0 -162
-116 -357 -330 -555 -239 -222 -517 -411 -810 -553 -418 -201 -649 -227 -894
-98 -125 65 -196 156 -230 293 -21 84 -20 113 3 245 20 112 40 177 84 277 23
50 29 57 55 57 63 0 92 20 143 98 27 41 49 78 49 83 0 4 -9 14 -20 22 -20 14
-20 16 -4 51 14 29 15 39 5 49 -10 10 -18 6 -40 -20 -32 -39 -36 -39 -78 -13
l-33 20 19 31 c11 17 17 38 14 45 -9 23 -33 16 -51 -16 -15 -26 -21 -29 -49
-24 -28 5 -34 2 -55 -33 -46 -74 -61 -120 -56 -168 3 -25 13 -54 22 -64 16
-17 15 -22 -5 -72 -78 -194 -113 -452 -79 -579 22 -81 79 -177 141 -234 123
-114 258 -166 449 -174 140 -5 227 8 390 60 240 76 419 163 645 313 356 235
551 425 672 652 75 141 112 319 80 383 -7 13 -28 35 -46 47 -30 20 -46 23
-130 22 -53 -1 -116 -5 -141 -10z m-1818 -235 c35 -20 73 -43 86 -51 l22 -14
-31 -47 c-18 -26 -39 -53 -47 -59 -42 -34 -149 4 -162 57 -10 38 36 150 61
150 4 0 36 -16 71 -36z"/>
<path d="M603 969 c9 -171 66 -298 187 -419 222 -223 637 -303 1040 -200 162
41 561 184 671 241 47 23 53 59 15 84 -23 15 -29 14 -143 -43 -65 -33 -170
-80 -233 -105 -342 -135 -523 -170 -754 -147 -203 20 -315 59 -452 155 -74 53
-132 127 -178 227 -42 91 -55 143 -56 224 0 61 0 61 -32 67 -18 3 -42 9 -52
13 -18 7 -19 3 -13 -97z"/>
<path d="M2598 853 c-3 -4 -8 -21 -12 -38 -4 -16 -18 -44 -32 -62 -31 -41 -14
-53 20 -13 29 35 50 100 37 113 -5 5 -11 5 -13 0z"/>
<path d="M2680 834 c-8 -14 -27 -35 -42 -46 -29 -20 -37 -38 -17 -38 17 0 89
76 89 94 0 24 -15 19 -30 -10z"/>
<path d="M2675 760 c-81 -44 -113 -70 -87 -70 17 0 202 101 202 111 0 16 -24
8 -115 -41z"/>
<path d="M2686 712 c-16 -4 -31 -12 -33 -17 -3 -10 125 -9 136 1 16 15 -59 26
-103 16z"/>
<path d="M2616 661 c-16 -3 -31 -12 -34 -20 -3 -10 1 -12 19 -8 13 4 53 7 89
7 37 0 60 4 55 9 -14 12 -94 20 -129 12z"/>
</g>
</svg>
